<svg xmlns="http://www.w3.org/2000/svg" width="18" height="18" viewBox="0 0 18 18">
    <defs>
        <linearGradient id="a" x1="100%" x2="0%" y1="50%" y2="50%">
            <stop offset="0%" stop-color="#FD8D57"/>
            <stop offset="100%" stop-color="#EFFF07"/>
        </linearGradient>
    </defs>
    <path fill="url(#a)" fill-rule="nonzero" stroke="#686767" d="M16 6.2c0-.248-.18-.403-.539-.464l-4.826-.735L8.47.413C8.35.138 8.192 0 8.001 0c-.193 0-.35.138-.472.413L5.365 5.001l-4.827.735C.18 5.797 0 5.952 0 6.2c0 .142.08.303.24.484l3.5 3.57-.826 5.04c-.013.094-.02.162-.02.202 0 .141.034.26.101.358.068.097.168.146.303.146.116 0 .244-.04.385-.12L8 13.5l4.317 2.379c.135.08.263.121.385.121.263 0 .394-.168.394-.504a1.6 1.6 0 0 0-.01-.202l-.826-5.04 3.49-3.57c.167-.174.25-.336.25-.484z" transform="translate(1 1)"/>
</svg>
