<svg xmlns="http://www.w3.org/2000/svg" xmlns:xlink="http://www.w3.org/1999/xlink" width="22" height="22" viewBox="0 0 22 22">
    <defs>
        <path id="a" d="M16.131 14.38v-2.467c0-.347-.246-.629-.548-.629h-2.806c-.302 0-.548.282-.548.63v2.466c0 .346.246.629.548.629h2.806c.302 0 .548-.283.548-.63zm-.548-3.87c.674 0 1.223.63 1.223 1.403v2.467c0 .773-.549 1.402-1.223 1.402h-2.806c-.674 0-1.223-.629-1.223-1.402v-2.467c0-.773.549-1.403 1.223-1.403h2.806zm5.65-3.598l.04-.225h-4.59l.037.224c.192 1.142 1.14 1.97 2.255 1.97 1.11 0 2.06-.828 2.259-1.969zm-1.888 12.325V9.64h-.183a2.59 2.59 0 0 0-.1.002l-.087.003c-1.007 0-1.945-.522-2.508-1.395l-.152-.235-.152.235c-.563.873-1.5 1.395-2.503 1.395-1.004 0-1.94-.522-2.504-1.395l-.15-.234-.153.234c-.568.873-1.506 1.395-2.508 1.395-1.007 0-1.945-.522-2.508-1.395l-.152-.235-.151.235c-.564.873-1.502 1.395-2.509 1.395-.062 0-.121 0-.179-.005l-.195-.014v9.616h2.307v-6.373c0-.976.761-1.77 1.696-1.77h1.595c.935 0 1.695.794 1.695 1.77v6.368h9.4zm-10.127 0v-6.368c0-.555-.433-1.006-.965-1.006H6.658c-.531 0-.964.451-.964 1.006v6.368h3.524zM.77 6.907c.192 1.143 1.135 1.97 2.244 1.97h.01c1.117 0 2.067-.829 2.26-1.97l.037-.224H.733l.038.223zm9.866-.224h-4.59l.039.224c.197 1.141 1.147 1.97 2.259 1.97 1.114 0 2.062-.829 2.255-1.97l.037-.224zm5.315 0h-4.585l.038.223c.192 1.142 1.14 1.97 2.255 1.97 1.114 0 2.062-.828 2.255-1.97l.037-.223zM3.902.768L1.097 5.924h19.804L18.094.768H3.9zm18.052 5.537a.35.35 0 0 1 .046.182c0 1.253-.714 2.39-1.82 2.897l-.142.065.038.153v10.016c0 .21-.164.382-.366.382H2.285a.374.374 0 0 1-.366-.382V9.425l-.109-.05C.71 8.868 0 7.735 0 6.487c0-.063.017-.126.05-.187L3.372.192A.357.357 0 0 1 3.688 0h14.62c.127 0 .252.076.316.194l3.33 6.111z"/>
    </defs>
    <use fill="currentColor" fill-rule="evenodd" transform="translate(0 1)" xlink:href="#a"/>
</svg>
