<svg xmlns="http://www.w3.org/2000/svg" xmlns:xlink="http://www.w3.org/1999/xlink" width="24" height="24" viewBox="0 0 24 24">
    <defs>
        <path id="a" d="M20 7.341a3.487 3.487 0 0 1-1.555 1.643V9.666c-.063 4.656-3.987 8.384-8.772 8.333A9.07 9.07 0 0 1 5 16.7a8.085 8.085 0 0 0 4.62-1.299h-.16c-1.483-.188-2.61-1.117-2.751-2.175h.841c-1.268-.812-2.056-1.897-2.056-3.02.478.18.969.328 1.469.441a3.415 3.415 0 0 1-1.335-2.949c.057-.416.213-.814.453-1.162.915 1.533 3.245 2.812 6.102 3.176h.227a2.797 2.797 0 0 1-.087-.715c-.004-1.208.74-2.3 1.886-2.765a3.134 3.134 0 0 1 3.348.635 3.605 3.605 0 0 0 2.083-.825 2.887 2.887 0 0 1-1.229 1.8 3.92 3.92 0 0 0 1.589-.5zM12 24C5.373 24 0 18.627 0 12S5.373 0 12 0s12 5.373 12 12-5.373 12-12 12zm0-1c6.075 0 11-4.925 11-11S18.075 1 12 1 1 5.925 1 12s4.925 11 11 11z"/>
    </defs>
    <use fill="currentColor" fill-rule="evenodd" xlink:href="#a"/>
</svg>
