<svg xmlns="http://www.w3.org/2000/svg" xmlns:xlink="http://www.w3.org/1999/xlink" width="57" height="42" viewBox="0 0 57 42">
    <defs>
        <path id="a" d="M0 41.571h61.83V0H0z"/>
        <path id="c" d="M.096 0h46.277v31.861H.096z"/>
    </defs>
    <g fill="none" fill-rule="evenodd">
        <g>
            <path fill="#F9DCDF" d="M14.723 1.268H53.43c1.068 0 1.935.79 1.935 1.765v26.474c0 .974-.867 1.764-1.935 1.764H14.723c-1.069 0-1.935-.79-1.935-1.764V3.033c0-.974.866-1.765 1.935-1.765"/>
            <path fill="#FCA5AD" d="M21.673 7.933c-.244.909-.867 1.688-1.732 2.166a4.005 4.005 0 0 1-2.871.375 3.762 3.762 0 0 1-1.914-1.085V4.854c0-.244.212-.442.474-.442h4.869c1.068.877 1.52 2.235 1.174 3.521"/>
            <path fill="#FCC3C6" d="M19.779 7.933c-.333 1.247-1.373 2.223-2.71 2.541a3.762 3.762 0 0 1-1.913-1.085V4.854c0-.244.213-.442.474-.442h2.974c1.068.877 1.521 2.235 1.175 3.521"/>
            <path fill="#FFF" d="M12.906 30.922h2.842c-1.045-.002-1.891-.79-1.894-1.764V2.684c.003-.973.85-1.762 1.894-1.765h-2.842c-1.045.003-1.891.792-1.894 1.765v26.474c.003.973.85 1.762 1.894 1.764"/>
            <mask id="b" fill="#fff">
                <use xlink:href="#a"/>
            </mask>
            <path fill="#FFF" d="M10.42 29.12h1.894V2.649H10.42z" mask="url(#b)"/>
            <path fill="#FF1D46" d="M11.367 24.709c-.523 0-.947.395-.947.882v3.53h1.894v-3.53c0-.487-.424-.882-.947-.882M12.314 2.648H10.42V18.53c0 .488.424.883.947.883.523 0 .947-.395.947-.883V2.648z" mask="url(#b)"/>
        </g>
        <path fill="#FF1D46" d="M10.401 22.126a.9.9 0 0 0 .274.628l.142.106a.74.74 0 0 0 .17.08.636.636 0 0 0 .17.053c.062.01.125.016.188.018.25-.004.49-.095.671-.257a.902.902 0 0 0 .198-.292.861.861 0 0 0-.198-.965.983.983 0 0 0-.311-.185.996.996 0 0 0-.36-.071.968.968 0 0 0-.67.256.848.848 0 0 0-.274.629"/>
        <g transform="translate(10.305)">
            <mask id="d" fill="#fff">
                <use xlink:href="#c"/>
            </mask>
            <path fill="#FF1D46" d="M43.54 31.861H2.929c-1.565 0-2.833-1.188-2.833-2.655 0-.489.423-.885.944-.885.522 0 .945.396.945.885s.423.885.944.885h40.61c.523 0 .946-.396.946-.885V2.656c0-.49-.423-.886-.945-.886H2.929c-.521 0-.944.396-.944.885s-.423.885-.945.885c-.521 0-.944-.396-.944-.885C.096 1.19 1.364 0 2.929 0h40.61c1.566 0 2.835 1.189 2.835 2.655v26.551c0 1.467-1.269 2.655-2.834 2.655" mask="url(#d)"/>
        </g>
        <g fill="#FF1D46">
            <path d="M16.064 26.508h34.963V5.378H16.064v21.13zm35.435 1.761H15.592c-.783 0-1.418-.591-1.418-1.32V4.938c0-.73.635-1.321 1.418-1.321h35.907c.783 0 1.418.59 1.418 1.32v22.01c0 .73-.635 1.321-1.418 1.321z"/>
            <path fill-rule="nonzero" d="M34.024 18.207l-.834.603a.746.746 0 0 1-1.05-.18.774.774 0 0 1 .176-1.068l8.868-6.42a.743.743 0 0 1 .87-.004l8.624 6.135c.341.242.424.72.186 1.067a.746.746 0 0 1-1.05.188l-.416-.296v8.625a.76.76 0 0 1-.753.766.76.76 0 0 1-.753-.766v-9.696l-6.267-4.457-6.11 4.423c.01.051.016.104.016.158v9.572a.76.76 0 0 1-.754.766.76.76 0 0 1-.753-.766v-8.65zm4.003-.165h7.61a.76.76 0 0 1 .753.766V28h-9.116v-9.192a.76.76 0 0 1 .753-.766zm.754 8.426h6.103v-6.894H38.78v6.894z"/>
            <path d="M.945 17.704c-.522 0-.945-.394-.945-.88v-2.641c0-1.46 1.27-2.642 2.835-2.642H5.67c.522 0 .945.395.945.88 0 .487-.423.881-.945.881H2.835c-.522 0-.945.394-.945.88v2.642c0 .486-.423.88-.945.88M5.67 41.475H2.835C1.269 41.475 0 40.293 0 38.834v-2.641c0-.487.423-.88.945-.88s.945.393.945.88v2.64c0 .487.423.881.945.881H5.67c.522 0 .945.394.945.88 0 .487-.423.881-.945.881M40.632 41.475h-2.835c-.521 0-.944-.394-.944-.88 0-.487.423-.88.944-.88h2.835c.522 0 .945-.395.945-.881v-2.641c0-.487.424-.88.945-.88.522 0 .945.393.945.88v2.64c0 1.46-1.27 2.642-2.835 2.642M11.339 41.475h-1.89c-.521 0-.944-.394-.944-.88 0-.487.423-.88.944-.88h1.89c.522 0 .945.393.945.88 0 .486-.423.88-.945.88M17.01 41.475h-1.89c-.523 0-.946-.394-.946-.88 0-.487.423-.88.945-.88h1.89c.522 0 .945.393.945.88 0 .486-.423.88-.945.88M22.679 41.475h-1.89c-.522 0-.945-.394-.945-.88 0-.487.423-.88.945-.88h1.89c.521 0 .944.393.944.88 0 .486-.423.88-.944.88M28.348 41.475h-1.89c-.522 0-.945-.394-.945-.88 0-.487.423-.88.945-.88h1.89c.522 0 .945.393.945.88 0 .486-.423.88-.945.88M34.018 41.475h-1.89c-.522 0-.945-.394-.945-.88 0-.487.423-.88.945-.88h1.89c.522 0 .945.393.945.88 0 .486-.423.88-.945.88M.945 33.551c-.522 0-.945-.394-.945-.88v-1.76c0-.487.423-.881.945-.881s.945.394.945.88v1.761c0 .486-.423.88-.945.88M.945 28.269c-.522 0-.945-.394-.945-.88v-1.761c0-.486.423-.88.945-.88s.945.394.945.88v1.76c0 .487-.423.881-.945.881M.945 22.987c-.522 0-.945-.394-.945-.88v-1.762c0-.486.423-.88.945-.88s.945.394.945.88v1.761c0 .487-.423.88-.945.88M42.522 33.551c-.521 0-.945-.394-.945-.88v-1.76c0-.487.424-.881.945-.881.522 0 .945.394.945.88v1.761c0 .486-.423.88-.945.88M17.954 11.541c-1.358 0-2.649-.546-3.545-1.496a.838.838 0 0 1 .112-1.214.995.995 0 0 1 1.306.052c.692.756 1.78 1.088 2.819.856 1.038-.231 1.848-.987 2.096-1.953.249-.967-.106-1.982-.92-2.627a.85.85 0 0 1-.335-.846.903.903 0 0 1 .64-.678c.33-.099.692-.02.943.203 1.472 1.21 1.988 3.143 1.295 4.854-.692 1.711-2.448 2.846-4.411 2.85M17.954 15.063c-.522 0-.945-.394-.945-.88v-.88c0-.487.423-.881.945-.881s.945.394.945.88v.88c0 .487-.423.88-.945.88M25.513 8.02h-.944c-.523 0-.946-.394-.946-.88 0-.487.423-.881.946-.881h.944c.522 0 .945.394.945.88 0 .487-.423.88-.945.88M23.3 13a.981.981 0 0 1-.668-.258l-.669-.622a.838.838 0 0 1 .012-1.234.995.995 0 0 1 1.324-.011l.669.622c.27.252.35.63.204.96A.949.949 0 0 1 23.3 13M11.339 13.302h-1.89c-.521 0-.944-.394-.944-.88s.423-.88.944-.88h1.89c.522 0 .945.394.945.88s-.423.88-.945.88"/>
        </g>
    </g>
</svg>
