<svg xmlns="http://www.w3.org/2000/svg" xmlns:xlink="http://www.w3.org/1999/xlink" width="22" height="22" viewBox="0 0 22 22">
    <defs>
        <path id="a" d="M18.488 14.198c-1.475 0-2.675-1.19-2.675-2.653s1.2-2.653 2.675-2.653c1.474 0 2.674 1.19 2.674 2.653s-1.2 2.653-2.674 2.653m-3.95-6.887a5.75 5.75 0 0 0-1.815 3.618l-.016.157H9.016L9 10.93a5.449 5.449 0 0 0-1.791-3.468 5.535 5.535 0 0 0-3.699-1.413c-.803 0-1.574.167-2.293.495l-.25.115V6l.048-.051c.62-.642 1.532-.968 2.71-.968 2.58 0 5.656 1.577 5.798 1.652a.443.443 0 0 0 .577-.144c.614-.915 1.34-1.457 2.16-1.61a2.74 2.74 0 0 1 .496-.045c.94 0 1.737.473 1.881.58a.45.45 0 0 0 .66-.183c.47-1.034-.007-2.857-.333-3.852l-.115-.35.347.134c1.042.403 1.895 1.155 2.536 2.234.502.843.708 1.623.76 1.842l.004.02v.491l-.17.005a5.839 5.839 0 0 0-3.787 1.555m-11.04 6.887c-1.475 0-2.675-1.19-2.675-2.653s1.2-2.653 2.675-2.653c1.474 0 2.674 1.19 2.674 2.653s-1.2 2.653-2.674 2.653M22 11.533a3.484 3.484 0 0 0-4.51-3.319l-.143.044-.067-.132-.494-.966-.092-.18.192-.064a4.939 4.939 0 0 1 1.61-.281 4.413 4.413 0 0 1 .442.02c.242 0 .432-.19.443-.442l-.013-1.103c-.074-.34-1.065-4.54-5.174-5.106a.471.471 0 0 0-.436.202.412.412 0 0 0-.034.405c.1.231.21.512.313.812l.15.435-.404-.226-1.014-.569a.451.451 0 0 0-.606.166.442.442 0 0 0 .167.601l2.077 1.163.071.04.015.08c.076.403.114.733.114 1.008v.26l-.244-.098a4.297 4.297 0 0 0-1.616-.332c-.218 0-.434.019-.644.057-.92.166-1.74.691-2.438 1.56l-.087.108-.126-.06c-.962-.451-3.448-1.502-5.74-1.502C2.15 4.114.956 4.6.167 5.56a.455.455 0 0 0-.1.278v1.623c0 .236.205.443.44.443.09 0 .181-.03.269-.088A4.598 4.598 0 0 1 3.5 6.932c1.008 0 1.97.322 2.782.932l.161.121-.143.142-.564.56-.105.104-.121-.085a3.501 3.501 0 0 0-2.015-.641C1.568 8.065 0 9.62 0 11.533 0 13.445 1.568 15 3.496 15s3.496-1.555 3.496-3.467c0-.72-.223-1.41-.646-1.998l-.087-.12.106-.105.564-.56.144-.142.122.16c.614.805.94 1.76.94 2.765 0 .243.199.441.445.441h4.545a.444.444 0 0 0 .445-.441c0-1.619.807-3.13 2.158-4.041l.167-.113.09.179.494.975.066.131-.119.088a3.425 3.425 0 0 0-1.418 2.78c0 1.913 1.568 3.468 3.496 3.468S22 13.445 22 11.533"/>
    </defs>
    <use fill="currentColor" fill-rule="evenodd" transform="translate(0 4)" xlink:href="#a"/>
</svg>
