<?xml version="1.0" encoding="utf-8"?>
<!-- Generator: Adobe Illustrator 23.0.3, SVG Export Plug-In . SVG Version: 6.00 Build 0)  -->
<svg version="1.1" id="Camada_1" xmlns="http://www.w3.org/2000/svg" xmlns:xlink="http://www.w3.org/1999/xlink" width="157" height="143" x="0px" y="0px"
	 viewBox="0 0 384 357" style="enable-background:new 0 0 384 357;" xml:space="preserve">
<style type="text/css">
	.st0{fill:#F9DCDF;}
	.st1{fill:#F78092;}
	.st2{fill:#FF1D46;}
</style>
<path class="st0" d="M375.12,259.5L257.67,56.1c-11.62-20.47-32.62-32.62-56.18-32.62c-23.55,0-44.55,12.23-56.17,32.55
	L27.72,259.65c-11.7,20.48-11.62,44.85,0.23,65.18C39.65,344.92,60.57,357,83.97,357h234.6c23.47,0,44.55-12.23,56.4-32.7
	C386.74,303.97,386.82,279.75,375.12,259.5z"/>
<path class="st1" d="M244.3,41.28c-11.12-20.47-31.21-32.62-53.74-32.62c-22.52,0-42.61,12.23-53.73,32.55L24.34,244.84
	c-11.19,20.48-11.12,44.85,0.22,65.18c11.19,20.1,31.21,32.18,53.59,32.18h224.41c22.45,0,42.61-12.23,53.95-32.7
	c11.26-20.33,11.34-44.55,0.14-64.8L244.3,41.28z M332.12,294.78c-6.24,11.25-17.29,17.93-29.63,17.93H78.08
	c-12.2,0-23.17-6.52-29.27-17.55c-6.17-11.17-6.24-24.52-0.07-35.77L161.23,55.84c6.1-11.18,17-17.77,29.34-17.77
	c12.27,0,23.25,6.68,29.34,17.85l112.42,203.55C338.36,270.41,338.28,283.61,332.12,294.78z"/>
<path class="st2" d="M355.97,301.49c11.77-20.33,11.85-44.55,0.15-64.8L238.67,33.28c-11.62-20.47-32.62-32.62-56.18-32.62
	c-23.55,0-44.55,12.23-56.17,32.55L8.72,236.84c-11.7,20.48-11.62,44.85,0.23,65.18c11.7,20.1,32.62,32.18,56.02,32.18h234.6
	C323.04,334.19,344.12,321.96,355.97,301.49L355.97,301.49z M330.47,286.79c-6.52,11.25-18.07,17.93-30.98,17.93H64.89
	c-12.75,0-24.23-6.52-30.6-17.55c-6.45-11.17-6.52-24.52-0.07-35.77l117.6-203.55c6.38-11.18,17.77-17.77,30.67-17.77
	c12.83,0,24.3,6.68,30.68,17.85l117.53,203.55C336.99,262.41,336.92,275.61,330.47,286.79L330.47,286.79z M330.47,286.79"/>
<g>
	<path class="st1" d="M192.42,238.03c-10.2,0-18.75,8.55-18.75,18.75c0,10.2,8.55,18.75,18.75,18.75c9.82,0,18.75-8.55,18.3-18.3
		C211.17,246.51,202.7,238.03,192.42,238.03z"/>
	<path class="st1" d="M187.77,106.41c-8.93,2.55-14.48,10.65-14.48,20.48c0.45,5.92,0.82,11.92,1.28,17.85
		c1.27,22.57,2.55,44.7,3.82,67.27c0.45,7.65,6.38,13.2,14.02,13.2c7.65,0,13.65-5.93,14.03-13.65c0-4.65,0-8.93,0.45-13.65
		c0.82-14.47,1.72-28.95,2.55-43.42c0.45-9.38,1.27-18.75,1.72-28.12c0-3.38-0.45-6.38-1.72-9.38
		C205.62,108.59,196.7,104.31,187.77,106.41z"/>
</g>
<path class="st2" d="M187.43,235.04c-10.2,0-18.75,8.55-18.75,18.75c0,10.2,8.55,18.75,18.75,18.75c9.82,0,18.75-8.55,18.3-18.3
	C206.18,243.51,197.71,235.04,187.43,235.04L187.43,235.04z M187.43,235.04"/>
<path class="st2" d="M182.76,101.41c-8.93,2.55-14.48,10.65-14.48,20.48c0.45,5.92,0.82,11.92,1.28,17.85
	c1.27,22.57,2.55,44.7,3.82,67.27c0.45,7.65,6.38,13.2,14.02,13.2c7.65,0,13.65-5.93,14.03-13.65c0-4.65,0-8.93,0.45-13.65
	c0.82-14.47,1.72-28.95,2.55-43.42c0.45-9.38,1.27-18.75,1.72-28.13c0-3.38-0.45-6.38-1.72-9.38
	C200.6,103.59,191.68,99.31,182.76,101.41L182.76,101.41z M182.76,101.41"/>
</svg>
