<svg xmlns="http://www.w3.org/2000/svg" xmlns:xlink="http://www.w3.org/1999/xlink" width="22" height="22" viewBox="0 0 22 22">
    <defs>
        <path id="a" d="M18.671 17.305a1.872 1.872 0 0 1-1.399.534 1.866 1.866 0 0 1-1.35-.643c0-.002-.002-.004-.004-.005l-5.61-6.239a1.918 1.918 0 0 0-.357-.475l-.552-.536-2.732-3.038a.395.395 0 0 0-.446-.1 3.263 3.263 0 0 1-3.539-.67 3.11 3.11 0 0 1-.902-2.726l1.432 1.4a.397.397 0 0 0 .377.098l1.67-.432a.386.386 0 0 0 .278-.27l.442-1.633a.376.376 0 0 0-.101-.368L4.445.802a3.278 3.278 0 0 1 2.79.882 3.081 3.081 0 0 1 .687 3.457.376.376 0 0 0 .101.436l2.321 1.993c.002 0 .003.002.004.003l1.475 1.266h.001l6.73 5.777.005.004c.403.334.637.803.658 1.319a1.786 1.786 0 0 1-.546 1.366zm-9.269-4.662L4.05 17.872c-.407.398-1.021.475-1.483.212a1.316 1.316 0 0 0-.39-1.11 1.387 1.387 0 0 0-1.169-.377c-.346-.457-.294-1.122.148-1.553L5.4 10.9l.02-.022 1.084-1.059a1.196 1.196 0 0 1 1.658-.002l.344.334L2.7 15.823a.376.376 0 0 0 0 .54.394.394 0 0 0 .553 0l5.791-5.66.605.674a1.126 1.126 0 0 1-.248 1.266zm5.57-9.084l.833.814-3.742 3.656-.886-.761 3.795-3.709zm.923-1.75l1.881-.936.748.731-.93 1.869-1.143.452-1.02-.996.464-1.12zm4.103 14.099c-.03-.72-.37-1.4-.931-1.867L12.65 8.534l3.926-3.836 1.449-.572a.388.388 0 0 0 .205-.187l1.117-2.245a.375.375 0 0 0-.075-.437L18.128.137a.397.397 0 0 0-.453-.07L15.41 1.194a.386.386 0 0 0-.185.197l-.586 1.414-4.052 3.959-1.845-1.584a3.828 3.828 0 0 0-.955-4.035A4.08 4.08 0 0 0 3.553.248a.376.376 0 0 0-.14.627l1.753 1.712-.327 1.205-1.233.32-1.752-1.713a.396.396 0 0 0-.642.136 3.855 3.855 0 0 0 .918 4.138 4.05 4.05 0 0 0 4.13.933l1.003 1.116a1.97 1.97 0 0 0-1.31.557l-1.504 1.468a.38.38 0 0 0-.02.022L.602 14.504c-.38.372-.594.862-.603 1.38a1.862 1.862 0 0 0 .566 1.377l.029.029a.397.397 0 0 0 .403.09.612.612 0 0 1 .627.133c.16.157.212.39.136.609a.376.376 0 0 0 .112.41c.365.313.823.468 1.283.468.522 0 1.047-.198 1.447-.588l5.352-5.23c.256-.25.432-.557.516-.893l4.858 5.403a2.681 2.681 0 0 0 2.019.912c.7 0 1.379-.273 1.876-.759.522-.51.804-1.216.774-1.937z"/>
    </defs>
    <use fill="currentColor" fill-rule="evenodd" transform="translate(1 2)" xlink:href="#a"/>
</svg>
