<?xml version="1.0" encoding="utf-8"?>
<!-- Generator: Adobe Illustrator 23.0.3, SVG Export Plug-In . SVG Version: 6.00 Build 0)  -->
<svg version="1.1" id="Camada_1" xmlns="http://www.w3.org/2000/svg" xmlns:xlink="http://www.w3.org/1999/xlink" x="0px" y="0px"
width="126" height="126"	 viewBox="0 0 410 415" style="enable-background:new 0 0 410 415;" xml:space="preserve">
<style type="text/css">
	.st0{fill:#F9DCDF;}
	.st1{fill:#F78092;}
	.st2{fill:#FF1D46;}
	.st3{fill:#FFFFFF;}
</style>
<g>
	<path class="st0" d="M114.82,205.17c-28.08,23.25-31.99,64.85-8.74,92.93c23.25,28.07,64.85,31.99,92.93,8.74V205.17
		C174.58,184.95,139.23,184.95,114.82,205.17z"/>
	<path class="st0" d="M197,88l20-15V40h-15.52l-10.24,10.24c-2.34,2.34-6.14,2.34-8.48,0L172.52,40h-31.03l-10.24,10.24
		c-2.34,2.34-6.14,2.34-8.48,0L112.52,40H97v33l20,15H197z"/>
	<rect x="121" y="100" class="st0" width="72" height="18"/>
	<path class="st0" d="M191.04,130H123c-57.6,20.84-92,92.27-92,149.67C31,366.62,119.12,376,157,376c14.09,0.06,28.16-1.24,42-3.89
		v-50.46c-25.66,16.46-58.56,16.46-84.22,0c-36.26-23.26-46.8-71.51-23.54-107.77c23.26-36.26,71.51-46.8,107.77-23.54V166
		c0-3.31,2.69-6,6-6h30.64C223.27,146.71,208.01,136.44,191.04,130z"/>
	<path class="st0" d="M211,376h156V220H211V376z M319,238c0-3.31,2.69-6,6-6h24c3.31,0,6,2.69,6,6v24c0,3.31-2.69,6-6,6h-24
		c-3.31,0-6-2.69-6-6V238z M319,286c0-3.31,2.69-6,6-6h24c3.31,0,6,2.69,6,6v72c0,3.31-2.69,6-6,6h-24c-3.31,0-6-2.69-6-6V286z
		 M271,238c0-3.31,2.69-6,6-6h24c3.31,0,6,2.69,6,6v24c0,3.31-2.69,6-6,6h-24c-3.31,0-6-2.69-6-6V238z M271,286c0-3.31,2.69-6,6-6
		h24c3.31,0,6,2.69,6,6v24c0,3.31-2.69,6-6,6h-24c-3.31,0-6-2.69-6-6V286z M271,334c0-3.31,2.69-6,6-6h24c3.31,0,6,2.69,6,6v24
		c0,3.31-2.69,6-6,6h-24c-3.31,0-6-2.69-6-6V334z M223,238c0-3.31,2.69-6,6-6h24c3.31,0,6,2.69,6,6v24c0,3.31-2.69,6-6,6h-24
		c-3.31,0-6-2.69-6-6V238z M223,286c0-3.31,2.69-6,6-6h24c3.31,0,6,2.69,6,6v24c0,3.31-2.69,6-6,6h-24c-3.31,0-6-2.69-6-6V286z
		 M223,334c0-3.31,2.69-6,6-6h24c3.31,0,6,2.69,6,6v24c0,3.31-2.69,6-6,6h-24c-3.31,0-6-2.69-6-6V334z"/>
	<path class="st0" d="M211,208h156v-36H211V208z M343,184h12v12h-12V184z M319,184h12v12h-12V184z M295,184h12v12h-12V184z"/>
	<path class="st1" d="M379,165H257.7c-12.68-15.62-28.62-28.29-46.7-37.12V102l21.6-16.2c1.51-1.13,2.4-2.91,2.4-4.8V39
		c0-3.31-2.69-6-6-6h-24c-1.59,0-3.12,0.63-4.24,1.76L193,42.52l-7.76-7.76C184.12,33.63,182.59,33,181,33h-36
		c-1.59,0-3.12,0.63-4.24,1.76L133,42.52l-7.76-7.76C124.12,33.63,122.59,33,121,33H97c-3.31,0-6,2.69-6,6v42
		c0,1.89,0.89,3.67,2.4,4.8L115,102v25.94c-45.42,21.98-90,81.01-90,156.73C25,353.52,75.3,393,163,393
		c14.24,0.05,28.45-1.21,42.45-3.77c0.91,2.27,3.11,3.76,5.55,3.77h168c3.31,0,6-2.69,6-6V171C385,167.69,382.31,165,379,165z
		 M103,78V45h15.52l10.24,10.24c2.34,2.34,6.14,2.34,8.48,0L147.48,45h31.03l10.24,10.24c2.34,2.34,6.14,2.34,8.48,0L207.48,45H223
		v33l-20,15h-80L103,78z M199,105v18h-72v-18H199z M205,311.84c-28.07,23.25-69.68,19.33-92.93-8.74
		c-23.25-28.08-19.34-69.68,8.74-92.93c24.42-20.22,59.77-20.22,84.18,0V311.84z M205,171v24.34
		c-36.26-23.26-84.51-12.72-107.77,23.54c-23.26,36.26-12.72,84.51,23.54,107.77c25.66,16.46,58.56,16.46,84.22,0v50.46
		c-13.84,2.65-27.91,3.95-42,3.89c-37.88,0-126-9.38-126-96.33c0-57.4,34.41-128.83,92-149.67h68.04c16.97,6.44,32.23,16.71,44.6,30
		H211C207.69,165,205,167.69,205,171z M373,381H217V225h156V381z M373,213H217v-36h156V213z"/>
	<rect x="283" y="244" class="st0" width="12" height="12"/>
	<rect x="235" y="244" class="st0" width="12" height="12"/>
	<rect x="283" y="292" class="st0" width="12" height="12"/>
	<rect x="331" y="292" class="st0" width="12" height="60"/>
	<rect x="283" y="340" class="st0" width="12" height="12"/>
	<rect x="331" y="244" class="st0" width="12" height="12"/>
	<rect x="235" y="340" class="st0" width="12" height="12"/>
	<rect x="235" y="292" class="st0" width="12" height="12"/>
	<path class="st2" d="M151,213v10.71c-10.56,2.27-17.96,10.2-18,19.29c-0.01,8.13,6.23,15.35,15.49,17.91l13.23,3.67
		c4.35,1.21,7.29,4.6,7.29,8.42c0,5.52-5.37,10-12,10s-12-4.48-12-10h-12c0.04,9.09,7.44,17.02,18,19.29V303h12v-10.71
		c10.57-2.27,17.96-10.2,18-19.29c0.01-8.13-6.23-15.35-15.48-17.91l-13.23-3.67c-4.35-1.21-7.29-4.6-7.29-8.42
		c0-5.52,5.37-10,12-10s12,4.48,12,10h12c-0.04-9.09-7.43-17.02-18-19.29V213H151z"/>
	<g>
		<path class="st3" d="M373,160H251.7c-12.68-15.62-28.62-28.29-46.7-37.12V97l21.6-16.2c1.51-1.13,2.4-2.91,2.4-4.8V34
			c0-3.31-2.69-6-6-6h-24c-1.59,0-3.12,0.63-4.24,1.76L187,37.52l-7.76-7.76C178.12,28.63,176.59,28,175,28h-36
			c-1.59,0-3.12,0.63-4.24,1.76L127,37.52l-7.76-7.76C118.12,28.63,116.59,28,115,28H91c-3.31,0-6,2.69-6,6v42
			c0,1.89,0.89,3.67,2.4,4.8L109,97v25.94c-45.42,21.98-90,81.01-90,156.73C19,348.52,69.3,388,157,388
			c14.24,0.05,28.45-1.21,42.45-3.77c0.91,2.27,3.11,3.76,5.55,3.77h168c3.31,0,6-2.69,6-6V166C379,162.69,376.31,160,373,160z
			 M97,73V40h15.52l10.24,10.24c2.34,2.34,6.14,2.34,8.48,0L141.48,40h31.03l10.24,10.24c2.34,2.34,6.14,2.34,8.48,0L201.48,40H217
			v33l-20,15h-80L97,73z M193,100v18h-72v-18H193z M199,306.84c-28.07,23.25-69.68,19.33-92.93-8.74
			c-23.25-28.08-19.34-69.68,8.74-92.93c24.42-20.22,59.77-20.22,84.18,0V306.84z M199,166v24.34
			c-36.26-23.26-84.51-12.72-107.77,23.54c-23.26,36.26-12.72,84.51,23.54,107.77c25.66,16.46,58.56,16.46,84.22,0v50.46
			c-13.84,2.65-27.91,3.95-42,3.89c-37.88,0-126-9.38-126-96.33c0-57.4,34.41-128.83,92-149.67h68.04
			c16.97,6.44,32.23,16.71,44.6,30H205C201.69,160,199,162.69,199,166z M367,376H211V220h156V376z M367,208H211v-36h156V208z"/>
	</g>
	<path class="st2" d="M229,268h24c3.31,0,6-2.69,6-6v-24c0-3.31-2.69-6-6-6h-24c-3.31,0-6,2.69-6,6v24
		C223,265.31,225.69,268,229,268z M235,244h12v12h-12V244z"/>
	<path class="st2" d="M277,268h24c3.31,0,6-2.69,6-6v-24c0-3.31-2.69-6-6-6h-24c-3.31,0-6,2.69-6,6v24
		C271,265.31,273.69,268,277,268z M283,244h12v12h-12V244z"/>
	<path class="st2" d="M325,268h24c3.31,0,6-2.69,6-6v-24c0-3.31-2.69-6-6-6h-24c-3.31,0-6,2.69-6,6v24
		C319,265.31,321.69,268,325,268z M331,244h12v12h-12V244z"/>
	<path class="st2" d="M229,316h24c3.31,0,6-2.69,6-6v-24c0-3.31-2.69-6-6-6h-24c-3.31,0-6,2.69-6,6v24
		C223,313.31,225.69,316,229,316z M235,292h12v12h-12V292z"/>
	<path class="st2" d="M277,316h24c3.31,0,6-2.69,6-6v-24c0-3.31-2.69-6-6-6h-24c-3.31,0-6,2.69-6,6v24
		C271,313.31,273.69,316,277,316z M283,292h12v12h-12V292z"/>
	<path class="st2" d="M229,364h24c3.31,0,6-2.69,6-6v-24c0-3.31-2.69-6-6-6h-24c-3.31,0-6,2.69-6,6v24
		C223,361.31,225.69,364,229,364z M235,340h12v12h-12V340z"/>
	<path class="st2" d="M277,364h24c3.31,0,6-2.69,6-6v-24c0-3.31-2.69-6-6-6h-24c-3.31,0-6,2.69-6,6v24
		C271,361.31,273.69,364,277,364z M283,340h12v12h-12V340z"/>
	<path class="st2" d="M325,364h24c3.31,0,6-2.69,6-6v-72c0-3.31-2.69-6-6-6h-24c-3.31,0-6,2.69-6,6v72
		C319,361.31,321.69,364,325,364z M331,292h12v60h-12V292z"/>
	<rect x="343" y="184" class="st2" width="12" height="12"/>
	<rect x="319" y="184" class="st2" width="12" height="12"/>
	<rect x="295" y="184" class="st2" width="12" height="12"/>
</g>
</svg>
