<svg xmlns="http://www.w3.org/2000/svg" xmlns:xlink="http://www.w3.org/1999/xlink" width="25" height="25" viewBox="0 0 25 25">
    <defs>
        <path id="a" d="M17.71 22.79H7.09A5.1 5.1 0 0 1 2 17.7V7.08A5.1 5.1 0 0 1 7.09 2h10.62a5.09 5.09 0 0 1 5.09 5.08V17.7a5.09 5.09 0 0 1-5.09 5.09zM7.09 3.5a3.59 3.59 0 0 0-3.58 3.58V17.7a3.59 3.59 0 0 0 3.58 3.59h10.62a3.59 3.59 0 0 0 3.59-3.59V7.08a3.59 3.59 0 0 0-3.59-3.58H7.09zm5.31 14.04a5.15 5.15 0 1 1-.08-10.3 5.15 5.15 0 0 1 .08 10.3zm0-8.79a3.65 3.65 0 1 0 3.65 3.64 3.64 3.64 0 0 0-3.65-3.64zm5.93-.86a1.45 1.45 0 1 1 0-2.9 1.45 1.45 0 0 1 0 2.9z"/>
    </defs>
    <g fill="none" fill-rule="evenodd" transform="translate(1 1)">
        <mask id="b" fill="#fff">
            <use xlink:href="#a"/>
        </mask>
        <use fill="#141414" fill-rule="nonzero" xlink:href="#a"/>
        <g fill="#54575F" mask="url(#b)">
            <path d="M0 0h24v24H0z"/>
        </g>
    </g>
</svg>
