<svg xmlns="http://www.w3.org/2000/svg" xmlns:xlink="http://www.w3.org/1999/xlink" width="24" height="24" viewBox="0 0 24 24">
    <defs>
        <path id="a" d="M16.57 22a5.713 5.713 0 0 1-3.13-.931A43.874 43.874 0 0 1 .926 8.514a5.621 5.621 0 0 1 .678-7.021l.72-.722a2.572 2.572 0 0 1 3.88.24L8.34 3.764c1 1.302.884 3.146-.272 4.311l-.156.157a76.44 76.44 0 0 0 5.893 5.807l.156-.157a3.257 3.257 0 0 1 4.297-.272l2.743 2.092a2.608 2.608 0 0 1 .24 3.893l-.71.7A5.53 5.53 0 0 1 16.57 22zM4.2 1.587c-.274.001-.536.11-.73.304l-.72.722a4.038 4.038 0 0 0-.48 5.043A41.963 41.963 0 0 0 14.328 19.75a4.027 4.027 0 0 0 5.059-.482l.709-.711A1.048 1.048 0 0 0 20 17.02l-2.743-2.093a1.686 1.686 0 0 0-2.232.136l-.678.69a.79.79 0 0 1-1.043 0 80.436 80.436 0 0 1-6.988-7.01.797.797 0 0 1 0-1.046l.689-.68a1.71 1.71 0 0 0 .135-2.239L5.055 2.027a1.042 1.042 0 0 0-.75-.398L4.2 1.587z"/>
    </defs>
    <g fill="none" fill-rule="evenodd" transform="translate(1 1)">
        <mask id="b" fill="#fff">
            <use xlink:href="#a"/>
        </mask>
        <use fill="#141414" fill-rule="nonzero" xlink:href="#a"/>
        <g fill="#54575F" mask="url(#b)">
            <path d="M-1-1h24v24H-1z"/>
        </g>
    </g>
</svg>
