<svg xmlns="http://www.w3.org/2000/svg" width="205" height="28" viewBox="0 0 205 28">
    <g fill="none" fill-rule="evenodd">
        <path fill="#ED3833" d="M56.319 12.86s-14.381-.161-27.493.566l1.719-3.208.3 2.478c3.238-.133 6.525-.206 9.683-.244L39.07 0H27.492l-7.165 14.059c-1.027.103-2.018.214-2.964.335C3.218 16.206-.222 18.925.011 22.006c.199 2.672 2.654 4.5 11.014 4.874 0 0-5.7-2.455-.647-5.31 5.051-2.86 21.06-6.69 45.94-8.71z"/>
        <path fill="#ED3833" d="M30.892 16.178c2.96-.56 6.12-1.1 9.421-1.618l1.363 12.32H32.13l-1.238-10.702zM13.516 26.88l3.666-7.571c2.577-.742 5.639-1.48 9.065-2.205l-4.971 9.776h-7.76z"/>
        <path fill="#FFF" d="M174.797 20.493h5.64l-2.819-7.965-2.82 7.965zm6.316-12.478l5.824 19.379h-4.957l-1.055-3.103h-7.247l-.994 3.103h-4.895l6.136-19.379h7.188zM63.324 20.493h5.64l-2.823-7.965-2.817 7.965zm6.318-12.478h.001l5.818 19.379h-4.953l-1.053-3.103h-7.252l-.99 3.103H56.32L62.45 8.015h7.192zm41.274-.175l-.002 5.503h-4.91V28h-5.384V13.343h-4.912V7.84h15.208zm-22.378.176v.002h5.382V21.56a6.505 6.505 0 0 1-1.845 4.55 6.226 6.226 0 0 1-4.453 1.885h-4.107a6.227 6.227 0 0 1-4.454-1.885 6.516 6.516 0 0 1-1.843-4.551V8.016h4.986v12.785c-.002 1.409 1.118 2.553 2.501 2.554h1.332c1.382 0 2.501-1.145 2.501-2.555V8.016zm36.625 11.582l.002-3.092c.002-2.24-1.777-4.059-3.977-4.063h-.16c-2.2.003-3.981 1.822-3.979 4.063v3.092a4.11 4.11 0 0 0 1.166 2.874 3.936 3.936 0 0 0 2.812 1.19h.16a3.93 3.93 0 0 0 2.81-1.19 4.107 4.107 0 0 0 1.166-2.874zm-2.561-11.486c3.943 0 7.14 3.266 7.14 7.297v5.285c0 4.03-3.196 7.298-7.14 7.298h-2.991c-3.943-.001-7.138-3.266-7.141-7.295v-5.285c0-4.032 3.198-7.3 7.14-7.3h2.992zm39.86 12.25l4.845-.004v.336a6.977 6.977 0 0 1-1.791 5.104 6.67 6.67 0 0 1-4.853 2.194h-2.99c-3.945-.001-7.142-3.269-7.142-7.3v-5.284c0-4.031 3.199-7.299 7.142-7.299h2.995c1.846.023 3.6.816 4.854 2.193a6.976 6.976 0 0 1 1.792 5.106v.334h-4.852a3.313 3.313 0 0 0-.934-2.33 3.175 3.175 0 0 0-2.274-.97h-.161c-2.2.005-3.981 1.823-3.977 4.064v3.092c-.004 2.241 1.775 4.06 3.977 4.065h.161a3.18 3.18 0 0 0 2.274-.97c.6-.62.938-1.46.934-2.33zm34.952-8.083l-3.927-.005v5.78h3.927c1.482 0 2.685-1.23 2.685-2.746v-.283c0-1.516-1.203-2.746-2.685-2.746zM205 14.893v.003a6.252 6.252 0 0 1-2.867 5.278c1.661.31 2.867 1.785 2.867 3.504v3.716h-5.388v-3.158a1.868 1.868 0 0 0-.53-1.315 1.8 1.8 0 0 0-1.287-.544h-4.308v5.017h-5.385V8.02h10.8c3.372.007 6.102 2.797 6.098 6.23v.643zM138.89 12.1c-1.068.003-1.933.883-1.937 1.971v.16c.035 1.053.897 1.882 1.933 1.853h3.667c3.082 0 5.582 1.32 5.582 4.28v3.03c.002 2.534-2.012 4.594-4.502 4.6h-6.35c-2.767-.006-5.005-2.295-5-5.112v-1.349h4.705c.14 1.211 1.146 2.125 2.342 2.132h1.461c1.642 0 2.499-.024 2.499-1.907 0-1.433-.929-1.93-2.835-1.93h-2.982c-2.709.05-4.978-2.075-5.159-4.828h-.027v-1.183a5.453 5.453 0 0 1 1.398-3.987 5.219 5.219 0 0 1 3.788-1.717h5.08c3.087.007 5.586 2.562 5.58 5.704v.755h-4.848c-.219-1.88-.93-2.472-2.868-2.472h-1.527z"/>
    </g>
</svg>
